# xmcd
#
# Track frame offsets:
#	183
#	16430
#	32425
#	44025
#	59085
#	74300
#	89085
#	105275
#	120063
#	135218
#
# Disc length: 2035
#
# Revision: 2
# Processed by: cddbd v1.5.1PL0 Copyright (c) Steve Scherf et al.
# Submitted via: EasyCDDAExtractor 6.0.0.1
# Normalized: r1:DSETVAR1
#
DISCID=7e07f10a
DTITLE=Various Artist - Country Hits Of The 70's
DYEAR=1900
DGENRE=Country
TTITLE0=Kenny Rogers - Lucille
TTITLE1=Crystal Gayle - I'll Get Over You
TTITLE2=Merle Haggard - Carolyn
TTITLE3=Gene Watson - Love In The Hot Afternoon
TTITLE4=Jessi Colter - I'm Not Lisa
TTITLE5=Glen Campbell - Rhinestone Cowboy
TTITLE6=Billie Jo Spears - Blanket On The Ground
TTITLE7=Asleep At The Wheel - The Letter That Johnny Walker Read
TTITLE8=Cristy Lane - Simple Little Words
TTITLE9=Ed Bruce - Mamas Don't Let Your Babies Grow Up To Be Cowboys
EXTD=
EXTT0=
EXTT1=
EXTT2=
EXTT3=
EXTT4=
EXTT5=
EXTT6=
EXTT7=
EXTT8=
EXTT9=
PLAYORDER=
